# xmcd
# Track frame offsets:
# 150
# 11787
# 21062
# 32075
# 44837
# 55450
# 68850
# 81625
# 97050
# 119600
# 133375
# 146687
# 156525
# 169925
# 181737
# 195775
# 209275
# 218587
# 229312
# 238437
# 256425
# 269137
# 281400
# 292562
#
# Disc length: 4065 seconds
# Revision: 0
# Processed by: cddbd v1.5.2PL0 Copyright (c) Steve Scherf et al.
# Submitted via: VisiTrax 2.11.2.271 - For more info visit www.synapsa.com
#
DISCID=7f0fdf18
DTITLE=Various Artist - Reflections 24 Golden Memories
DYEAR=1994
DGENRE=Oldies
TTITLE0=Vic Dana - Red Roses For A Blue Lady
TTITLE1=Shirley Bassey - Big Spender
TTITLE2=Roger Whittaker - Durham Town
TTITLE3=Acker Bilk - Stranger On The Shore
TTITLE4=Conway Twitty - It's Only Make Believe
TTITLE5=Lynn Anderson - Rose Garden
TTITLE6=Gene Pitney - Half Heaven, Half Heartache
TTITLE7=Val Doonican - Little Green Apples
TTITLE8=Mary Hopkins - Those Were The Days
TTITLE9=Mantovani Orchestra - Charmaine
TTITLE10=Percy Sledge - When A Man Loves A Woman
TTITLE11=Pat Boone - Love Letters In The Sand
TTITLE12=Ray Charles - Take These Chains From My Heart
TTITLE13=Jerry Butler - Moon River
TTITLE14=Sue Thompson - Sad Movies
TTITLE15=Daniel Boone - Beautiful Sunday
TTITLE16=Billy Vaughan - Sail Along Silvery Moon
TTITLE17=Ricky Nelson - Hello Mary Lou
TTITLE18=Sandy Posey - Born A Woman
TTITLE19=Brook Benton - Rainy Nights In Georgia
TTITLE20=Frankie Laine - High Noon
TTITLE21=Ketty Lester - Love Letters
TTITLE22=Roger Miller - King Of The Road
TTITLE23=The Platters - Twilight Time
EXTD=HUGHES LEISURE GROUP AUSTRALIA CD-PLAT-002
EXTT0=
EXTT1=
EXTT2=
EXTT3=
EXTT4=
EXTT5=
EXTT6=
EXTT7=
EXTT8=
EXTT9=
EXTT10=
EXTT11=
EXTT12=
EXTT13=
EXTT14=
EXTT15=
EXTT16=
EXTT17=
EXTT18=
EXTT19=
EXTT20=
EXTT21=
EXTT22=
EXTT23=
PLAYORDER=
